<svg id="Capa_1" data-name="Capa 1" xmlns="http://www.w3.org/2000/svg" viewBox="0 0 35 35"><defs><style>.cls-1{fill:#c7c7c7;}</style></defs><title>Sin título-1</title><path class="cls-1" d="M35,4.45V30.56a.39.39,0,0,0-.06.11A5.07,5.07,0,0,1,31,34.87l-.47.13H4.44s-.07-.06-.11-.06A5.11,5.11,0,0,1,0,29.84V5.14A5.1,5.1,0,0,1,5.14,0Q17.5,0,29.87,0A4.92,4.92,0,0,1,34.5,3,9.1,9.1,0,0,1,35,4.45ZM17.5,33H29.67a3,3,0,0,0,2.94-1.77,3.92,3.92,0,0,0,.33-1.55c0-3.81,0-7.63,0-11.44V5.34a3,3,0,0,0-1.77-2.95,3.74,3.74,0,0,0-1.55-.32c-3.88,0-7.77,0-11.65,0H5.33A3,3,0,0,0,2.39,3.82a3.74,3.74,0,0,0-.32,1.55c0,3.88,0,7.77,0,11.65V29.67a3.1,3.1,0,0,0,1.76,3A3.49,3.49,0,0,0,5.4,33Z"/><path class="cls-1" d="M6.25,10.33h6.51a2.67,2.67,0,0,1,.83.17,4.1,4.1,0,0,1,1.69,6.81,1.7,1.7,0,0,0-.18.19,4.27,4.27,0,0,1,1.27,2.11,4.12,4.12,0,0,1-3.88,5.06c-2.07,0-4.15,0-6.24,0Zm2,6.15h3.58a5.57,5.57,0,0,0,.91-.06,2,2,0,0,0,1.61-2.26,2,2,0,0,0-2.15-1.77q-1.85,0-3.69,0l-.26,0Zm0,2.05v4.09c1.38,0,2.75,0,4.11,0a2,2,0,0,0,0-4.07C11,18.5,9.68,18.53,8.3,18.53Z"/><path class="cls-1" d="M28.76,20.57h-8a3,3,0,0,0,2,1.92,3.06,3.06,0,0,0,3.52-1.4l1.75,1a5.12,5.12,0,1,1-3.81-7.65C26.65,14.74,29.13,16.77,28.76,20.57Zm-8-2h5.72a3,3,0,0,0-5.72,0Z"/><path class="cls-1" d="M27.74,10.34v2H19.57v-2Z"/></svg>