<svg id="Capa_1" data-name="Capa 1" xmlns="http://www.w3.org/2000/svg" viewBox="0 0 35 35"><defs><style>.cls-1{fill:#c7c7c7;}</style></defs><title>Sin título-1</title><path class="cls-1" d="M8.75,0h17.5c.1,0,.19.06.29.07a8.92,8.92,0,0,1,2.68.75,9.54,9.54,0,0,1,5.52,6.63c.1.43.17.87.26,1.3v17.5c-.06.31-.11.62-.17.93A9.68,9.68,0,0,1,25.29,35H9.71a10.54,10.54,0,0,1-1.86-.16A9.66,9.66,0,0,1,.21,27.32,11.08,11.08,0,0,1,0,25.25C0,20.08,0,14.91,0,9.74a9.38,9.38,0,0,1,.84-4A9.55,9.55,0,0,1,7.46.26C7.88.16,8.32.09,8.75,0ZM3.14,17.5h0q0,3.81,0,7.62a7.32,7.32,0,0,0,.33,2.28,6.61,6.61,0,0,0,6.36,4.48c5.13,0,10.25,0,15.38,0a7.49,7.49,0,0,0,2.21-.33,6.55,6.55,0,0,0,4.49-6.34c0-5.13,0-10.25,0-15.38a7.49,7.49,0,0,0-.33-2.21,6.54,6.54,0,0,0-6.34-4.49c-5.13,0-10.25,0-15.38,0a6.34,6.34,0,0,0-3.12.72A6.2,6.2,0,0,0,3.16,9.33C3.07,12.05,3.14,14.78,3.14,17.5Z"/><path class="cls-1" d="M17.51,26.52a9,9,0,1,1,9-9A9,9,0,0,1,17.51,26.52Zm5.88-9a5.89,5.89,0,1,0-5.89,5.9A5.86,5.86,0,0,0,23.39,17.49Z"/><path class="cls-1" d="M26.9,10.4a2.28,2.28,0,1,1,2.28-2.28A2.3,2.3,0,0,1,26.9,10.4Z"/></svg>