<svg id="Capa_1" data-name="Capa 1" xmlns="http://www.w3.org/2000/svg" viewBox="0 0 35 35"><defs><style>.cls-1{fill:#c7c7c7;}</style></defs><title>Sin título-1</title><path class="cls-1" d="M31.51,35h-28a1,1,0,0,0-.15-.07A4.08,4.08,0,0,1,0,30.82V4.07A4.09,4.09,0,0,1,4.07,0H30.92a3.88,3.88,0,0,1,3.44,1.93A9.81,9.81,0,0,1,35,3.49v28a1.07,1.07,0,0,0-.07.19,4.08,4.08,0,0,1-2.81,3.12ZM17.5,2.73H4.31A1.42,1.42,0,0,0,2.73,4.32V30.67a1.43,1.43,0,0,0,1.6,1.6H30.67a1.43,1.43,0,0,0,1.6-1.61V4.35a1.43,1.43,0,0,0-1.62-1.62Z"/><path class="cls-1" d="M14,28.89V13.48h4.61v2c.06,0,.1,0,.11,0a4.8,4.8,0,0,1,3.83-2.18,6.82,6.82,0,0,1,3.54.51,4.24,4.24,0,0,1,2.43,3.15,12.89,12.89,0,0,1,.35,2.7c0,3,0,6.08,0,9.12,0,.06,0,.11,0,.19H24.13v-.36c0-2.35,0-4.7,0-7a12.8,12.8,0,0,0-.2-2.31,2.22,2.22,0,0,0-2.78-1.85,2.57,2.57,0,0,0-2.41,2.43,11,11,0,0,0-.13,1.63q0,3.56,0,7.11v.39Z"/><path class="cls-1" d="M10.91,28.9H6.17V13.5h4.74Z"/><path class="cls-1" d="M5.81,8.54A2.81,2.81,0,1,1,8.6,11.35,2.79,2.79,0,0,1,5.81,8.54Z"/></svg>