<svg id="Capa_1" data-name="Capa 1" xmlns="http://www.w3.org/2000/svg" xmlns:xlink="http://www.w3.org/1999/xlink" viewBox="0 0 17 12.27"><defs><style>.cls-1{fill:none;}.cls-2{clip-path:url(#clip-path);}.cls-3{fill:#172a38;}.cls-4{clip-path:url(#clip-path-2);}.cls-5{fill:#e1c590;}</style><clipPath id="clip-path"><rect class="cls-1" x="0.56" y="0.42" width="8.52" height="11.15" transform="translate(-0.6 0.54) rotate(-6.02)"/></clipPath><clipPath id="clip-path-2"><rect class="cls-1" x="7.72" y="0.56" width="8.52" height="11.15" transform="translate(22.94 13.94) rotate(-171.67)"/></clipPath></defs><title>logo</title><g class="cls-2"><path class="cls-3" d="M2.93,5.29a8.88,8.88,0,0,0-.07-1.15,4,4,0,0,0-.17-.92,1.36,1.36,0,0,1-.07-.35c0-.08,0-.14.12-.12s.2,0,.19-.19,0-.22,0-.33.11-.16.21-.15.07.11.07.18a.93.93,0,0,0,0,.13c0,.06-.06.12,0,.16s.08-.06.13-.06.16-.11.23,0,0,.14-.07.2A.47.47,0,0,0,3.25,3a.12.12,0,0,1-.08.1c-.12.07-.1.13,0,.2s.1.09,0,.16a1.11,1.11,0,0,0-.12.79l.22-.61A2.8,2.8,0,0,1,4.72,1.87c.08,0,.06-.06,0-.12a.26.26,0,0,0-.19-.13H4.27a.89.89,0,0,1-.45-.09.17.17,0,0,1-.08-.16c0-.08.06-.08.12-.1H4c.23,0,.44.13.67.13a1,1,0,0,1,.3,0,4.76,4.76,0,0,1,1,.35A3.41,3.41,0,0,0,6.7,2c0-.09-.11-.11-.15-.16s-.11-.16,0-.23a.15.15,0,0,1,.22,0s.1,0,.14,0,.27.07.21.26,0,.1.06.13a.14.14,0,0,1,0,.19s-.06.11,0,.15.36.3.6.34.41.39.66.52c0,0,0,0,0,0s0,.18-.08.23-.11,0-.15-.11,0-.13-.11-.14a2.16,2.16,0,0,0-.36,0c-.09,0-.07.08,0,.1s.18.26.34.33a.5.5,0,0,1,.34.59c0,.09-.11.15-.14.26s-.05.12-.13.1A.15.15,0,0,1,8,4.52,2.74,2.74,0,0,0,7.81,4a.46.46,0,0,0-.24-.2c-.06,0-.1.1-.14.16a.46.46,0,0,1-.57.2.19.19,0,0,1-.06-.33.85.85,0,0,1,.32-.15.31.31,0,0,0,.21-.42,4.52,4.52,0,0,0-.18-.47,1.37,1.37,0,0,0-.56-.63.18.18,0,0,0-.19,0,.89.89,0,0,0,.31.27.15.15,0,0,1,.08.23c-.06.09-.13,0-.2,0a1.53,1.53,0,0,1-.29-.28,1.41,1.41,0,0,0-.74-.45,1.14,1.14,0,0,0-.79.16s-.09,0-.06.08,0,.12.1.12.24,0,.34-.06a.15.15,0,0,1,.21,0c.06,0,.1.09,0,.17v0c.11,0,.22.08.32,0A1.09,1.09,0,0,1,6,2.36c.08,0,.17,0,.17.08s-.06.14-.14.16l-.25,0a1.7,1.7,0,0,1-.84,0,.89.89,0,0,0-1.19.43,6,6,0,0,0-.58,1.78s0,.08,0,.13a.37.37,0,0,0,.18-.14,3.13,3.13,0,0,0,.16-.52c.09-.18,0-.39,0-.59s.05-.16.15-.1.07,0,.12,0,.06-.25.14-.35,0-.12.07-.1.09.07.09.14a3.35,3.35,0,0,1-.25,1,3.55,3.55,0,0,1-.51,1,.07.07,0,0,0,0,.06,1.6,1.6,0,0,0,.07,1.25,5.07,5.07,0,0,0,.69,1.1c.34.43.7.85,1.07,1.25a2.39,2.39,0,0,0,.23.22c.18.15.39.25.57.38a3.81,3.81,0,0,0,.4.23c0-.11-.09-.13-.13-.19s-.13-.39-.33-.51a.32.32,0,0,1-.16-.24.63.63,0,0,0-.42-.5A.57.57,0,0,1,5,8c0-.1-.19-.23.07-.25l0,0a1.63,1.63,0,0,0,0-.38c0-.09-.08-.11-.15-.13s0,0-.07,0a2.77,2.77,0,0,1-.34-.57.08.08,0,0,1,0-.13c.06,0,.08,0,.12,0s.09.13.15.15a1.1,1.1,0,0,1,.48.37,3.06,3.06,0,0,1,.51.87,1.63,1.63,0,0,1,.11.31A2.56,2.56,0,0,0,6.4,9.4a4.45,4.45,0,0,0,.84.84A8,8,0,0,1,8,10.9a5.23,5.23,0,0,1,.56.67,7.21,7.21,0,0,1,.68,1.13,2,2,0,0,1,.17.8,9.71,9.71,0,0,1-.09,1.21c0,.23-.1.44-.15.66a5.36,5.36,0,0,0,0,1.55c0,.49,0,1,.06,1.48a3.6,3.6,0,0,0,.19,1,3.48,3.48,0,0,0,.77,1.14,2.55,2.55,0,0,0,.61.37,8.38,8.38,0,0,1,1.17.76,4.62,4.62,0,0,1,.91.8,5.15,5.15,0,0,0,.53.61,7.62,7.62,0,0,0,1.81,1.1c.13.06.14.11.09.21a.21.21,0,0,1-.33.07A5,5,0,0,0,14,24a3.71,3.71,0,0,0-1.19-.29,5.45,5.45,0,0,1-1.07-.06,1.68,1.68,0,0,0-.54-.08,5.2,5.2,0,0,1-.78.1,1.38,1.38,0,0,1-.53-.09.11.11,0,0,1-.09-.14.13.13,0,0,1,.14-.13,1.06,1.06,0,0,0,.24,0c-.07-.07-.18-.12-.11-.21s.15,0,.22,0l.13.06c.15.05.28.16.44.21s.2-.06.19-.11.09-.15.2-.18L11,22.9a7.76,7.76,0,0,1-.88-.75,2.44,2.44,0,0,1-.69-1c-.09-.22-.18-.44-.26-.67a5.55,5.55,0,0,0-.53-1c-.43-.77-1-1.48-1.34-2.27a1.82,1.82,0,0,1-.23-.6,1.91,1.91,0,0,0-.1-.54,2.14,2.14,0,0,1-.23-.54c0-.09,0-.19.07-.22s.18,0,.23.12a1.34,1.34,0,0,1,.2.61.17.17,0,0,0,.11.15.67.67,0,0,1,.37.4.28.28,0,0,0,.18.19A.14.14,0,0,1,8,17a2.84,2.84,0,0,0,.3,1.15c0,.09.05.2.16.23s-.1-.27.08-.3.16.17.18.27a8.63,8.63,0,0,0,.41,1.59,7.43,7.43,0,0,1-.09-1,4.16,4.16,0,0,0-.4-1.75,6,6,0,0,0-1.16-1.74,6.75,6.75,0,0,1-1.16-1.55,1.23,1.23,0,0,1-.14-.73c0-.07,0-.16.13-.17s.09.08.1.15a2.26,2.26,0,0,0,.34.87s0,.15.12.09S7,14,7,13.89a1.6,1.6,0,0,1-.05-.21c0-.11-.07-.24.08-.29s.22,0,.27.17a1.06,1.06,0,0,1,0,.43c0,.12,0,.18.17.19a.28.28,0,0,1,.3.24,7,7,0,0,1,.18.76c0,.15,0,.33.23.36s.44.29.51.55A6,6,0,0,1,9,17.66l.06.07a4.35,4.35,0,0,0,0-.53c-.08-.51,0-1-.15-1.53a4.83,4.83,0,0,0-.49-1.41c-.25-.44-.53-.87-.82-1.29-.1-.14-.26-.24-.33-.39A3.17,3.17,0,0,0,6.78,12a1.34,1.34,0,0,0-.27-.26c-.2-.15-.4-.28-.59-.44A4.27,4.27,0,0,0,5,10.68L3.65,10a3.71,3.71,0,0,1-1.27-1,5.52,5.52,0,0,1-.89-1.74,13.3,13.3,0,0,1-.33-1.76C1.05,5,1.12,4.38,1,3.81A9.68,9.68,0,0,0,.72,2.75a2.81,2.81,0,0,1-.25-.9c0-.25.1-.35.35-.31A.43.43,0,0,1,1.16,2a1.75,1.75,0,0,1,0,.46,1.29,1.29,0,0,0,0,.73A1.49,1.49,0,0,1,1.23,3c.09-.14.16-.16.29-.06a.32.32,0,0,1,.12.2A1.61,1.61,0,0,1,1.56,4a3.32,3.32,0,0,0-.2,1.5.76.76,0,0,0,.06.2c0,.09.1.08.16,0a.88.88,0,0,0,.19-.34A4.81,4.81,0,0,1,2,4.68a.22.22,0,0,1,.39-.08,1.22,1.22,0,0,1,.4.59,1.12,1.12,0,0,1-.07.86,1.09,1.09,0,0,1-.47.38.65.65,0,0,0,.06,1.09A.66.66,0,0,1,2.6,8a1.78,1.78,0,0,1,.06.56A.5.5,0,0,0,3.21,9a.56.56,0,0,1,.27.08A2.39,2.39,0,0,1,4,9.68a3.06,3.06,0,0,0,1.45.8A2.47,2.47,0,0,0,5.05,10l-1-.69c-.17-.13-.36-.25-.3-.52a.2.2,0,0,0-.11-.18c-.11-.09-.24-.16-.35-.24s-.47-.52-.33-.8a.24.24,0,0,0,0-.23,1.86,1.86,0,0,1-.2-.43.44.44,0,0,1,0-.37c.07-.07.16,0,.26,0A7.76,7.76,0,0,1,2.93,5.29ZM13.45,23.34a5.53,5.53,0,0,0-1-.42,2.47,2.47,0,0,1-.94-.66.18.18,0,0,1,0-.25c.06-.09.14,0,.21,0a1.11,1.11,0,0,1,.4.31,1.83,1.83,0,0,0,.8.48.08.08,0,0,0,.07,0s0-.05,0-.08a3.42,3.42,0,0,0-1-.88l-1.49-.75a2,2,0,0,1-.75-.78,1.91,1.91,0,0,0-.26-.41A2.18,2.18,0,0,0,9.77,21a7.25,7.25,0,0,1,.61,1.09,1.55,1.55,0,0,0,.56.63,4.94,4.94,0,0,0,.64.35,10.22,10.22,0,0,0,1.52.46c.32.1.64.24,1,.36l.18.07ZM3.53,8a1.14,1.14,0,0,1,.29.4l.09.16s0,.06.09,0,0-.05,0-.08c-.14-.23-.29-.46-.42-.69a3.45,3.45,0,0,1-.21-.43C3.25,7.75,3.25,7.75,3.53,8Zm3.6,6.39c0,.06,0,.12,0,.16a.37.37,0,0,1,.16.29.7.7,0,0,0,.28.51C7.46,15,7.44,14.6,7.13,14.36ZM4.39,9.05c-.09-.1-.11-.22-.24-.27C4.2,8.9,4.22,9,4.39,9.05Z"/></g><g class="cls-4"><path class="cls-5" d="M13.73,6.76c.1,0,.2-.08.26,0a.4.4,0,0,1,0,.37,2.27,2.27,0,0,1-.21.41c0,.08-.09.15,0,.24.12.28-.14.65-.36.78L13,8.78c-.06,0-.13.1-.11.18,0,.27-.15.38-.33.5s-.66.44-1,.66a2.4,2.4,0,0,0-.43.47,3,3,0,0,0,1.48-.74,2.22,2.22,0,0,1,.56-.54.45.45,0,0,1,.27-.06.5.5,0,0,0,.57-.5,2.09,2.09,0,0,1,.08-.55.68.68,0,0,1,.37-.44.64.64,0,0,0,.09-1.08,1,1,0,0,1-.44-.41,1.09,1.09,0,0,1,0-.85,1.3,1.3,0,0,1,.42-.58.22.22,0,0,1,.39.1,4.86,4.86,0,0,1,.15.66.86.86,0,0,0,.18.34c0,.07.12.08.16,0a.6.6,0,0,0,.06-.19,3.09,3.09,0,0,0-.14-1.51,1.71,1.71,0,0,1,0-.84.29.29,0,0,1,.13-.19c.14-.09.21-.08.29.07l.11.21a1.31,1.31,0,0,0,0-.73,1.83,1.83,0,0,1,0-.46.44.44,0,0,1,.37-.43c.24,0,.34.07.33.32a3.08,3.08,0,0,1-.28.89,9.59,9.59,0,0,0-.32,1c-.15.57-.11,1.17-.24,1.74a11.54,11.54,0,0,1-.4,1.74,5.54,5.54,0,0,1-1,1.71,3.72,3.72,0,0,1-1.3.92l-1.37.6a4.81,4.81,0,0,0-1,.6c-.19.15-.4.28-.6.41a1.17,1.17,0,0,0-.28.26c-.16.19-.38.31-.5.54s-.24.23-.34.37q-.46.62-.87,1.26a4.86,4.86,0,0,0-.55,1.39c-.14.5-.11,1-.22,1.52a4.22,4.22,0,0,0,0,.53l.06-.07a6,6,0,0,1,.35-1.56c.08-.25.2-.49.52-.52s.24-.2.25-.35a6.57,6.57,0,0,1,.21-.76A.29.29,0,0,1,9,14.2c.13,0,.17-.06.18-.17a1.12,1.12,0,0,1,.06-.44c.06-.12.14-.2.28-.15s.09.18.07.29a1.66,1.66,0,0,1-.06.21c0,.12.05.11.12.15s.09-.05.12-.08a2.27,2.27,0,0,0,.37-.86c0-.06,0-.15.11-.14s.11.1.12.17a1.33,1.33,0,0,1-.16.73A7.35,7.35,0,0,1,9,15.41a6,6,0,0,0-1.24,1.68,4.33,4.33,0,0,0-.47,1.74,9.53,9.53,0,0,1-.13,1,8.7,8.7,0,0,0,.47-1.58c0-.1,0-.3.19-.26s0,.2.07.31S8,18.2,8,18.11A2.81,2.81,0,0,0,8.37,17c0-.07,0-.11.11-.14a.25.25,0,0,0,.18-.18.69.69,0,0,1,.39-.38.17.17,0,0,0,.11-.15,1.34,1.34,0,0,1,.23-.6c0-.09.12-.16.23-.11s.07.14.06.22-.17.35-.25.54a1.94,1.94,0,0,0-.12.53,1.64,1.64,0,0,1-.26.59c-.41.78-1,1.47-1.42,2.22a5.57,5.57,0,0,0-.58,1c-.08.23-.18.44-.28.66a2.47,2.47,0,0,1-.73.94,8.89,8.89,0,0,1-.91.71l-.26.14c.1,0,.26,0,.19.18s.07.15.18.12.29-.14.45-.19L5.82,23c.08,0,.18-.06.23,0s0,.14-.12.21l.23,0a.15.15,0,0,1,.14.13.12.12,0,0,1-.1.14,1.36,1.36,0,0,1-.53.07,5.29,5.29,0,0,1-.78-.13,1.45,1.45,0,0,0-.54.06,5.47,5.47,0,0,1-1.07,0,3.72,3.72,0,0,0-1.2.25,4.34,4.34,0,0,0-1,.44.2.2,0,0,1-.32-.09c0-.1,0-.15.09-.21a7.26,7.26,0,0,0,1.85-1,5.21,5.21,0,0,0,.56-.59,4.61,4.61,0,0,1,.94-.76,9,9,0,0,1,1.2-.71A2.6,2.6,0,0,0,6,20.47a3.42,3.42,0,0,0,.81-1.11,3.54,3.54,0,0,0,.24-1c.08-.49,0-1,.11-1.48a5,5,0,0,0,.1-1.54c0-.22-.1-.44-.12-.67a8.11,8.11,0,0,1,0-1.21,2,2,0,0,1,.2-.8A8.66,8.66,0,0,1,8,11.55a6,6,0,0,1,.59-.64,6.82,6.82,0,0,1,.79-.63,4.73,4.73,0,0,0,.87-.8,2.54,2.54,0,0,0,.52-1.16,1.6,1.6,0,0,1,.13-.3,3.15,3.15,0,0,1,.54-.85,1.09,1.09,0,0,1,.5-.35c.06,0,.11-.09.16-.15s.06-.07.12,0a.09.09,0,0,1,0,.13,3.62,3.62,0,0,1-.37.56.18.18,0,0,1-.07,0,.16.16,0,0,0-.16.12c0,.13,0,.25,0,.38l0,0c.25,0,.11.16.06.25a.63.63,0,0,1-.35.29.62.62,0,0,0-.43.48.36.36,0,0,1-.17.24c-.21.11-.25.32-.36.49s-.11.08-.13.18a3.75,3.75,0,0,0,.4-.21c.19-.12.41-.21.59-.35l.24-.21c.39-.39.76-.8,1.12-1.21a5.53,5.53,0,0,0,.74-1.07,1.69,1.69,0,0,0,.12-1.25l0-.06a3,3,0,0,1-.47-1,2.89,2.89,0,0,1-.21-1c0-.07,0-.12.09-.14s0,.08.07.11,0,.24.13.35,0,.09.11,0,.15,0,.15.11-.1.4,0,.59a4.42,4.42,0,0,0,.14.52.3.3,0,0,0,.17.14.53.53,0,0,0,0-.12,6.26,6.26,0,0,0-.5-1.8A.89.89,0,0,0,12,2.81a1.59,1.59,0,0,1-.84-.06l-.25,0a.16.16,0,0,1-.14-.17c0-.1.1-.08.17-.07a1.09,1.09,0,0,1,.24.07c.1.06.22,0,.33,0s0,0,0,0,0-.13.06-.17a.15.15,0,0,1,.2,0c.1.1.22.07.34.08s.07-.08.1-.12,0-.07-.05-.09A1.18,1.18,0,0,0,11.41,2a1.38,1.38,0,0,0-.76.42,1.27,1.27,0,0,1-.3.27c-.07,0-.15.11-.21,0a.15.15,0,0,1,.09-.22.8.8,0,0,0,.32-.26.18.18,0,0,0-.19,0,1.37,1.37,0,0,0-.58.61c-.07.15-.15.3-.21.46a.3.3,0,0,0,.2.42,1.17,1.17,0,0,1,.31.17.19.19,0,0,1-.06.33A.48.48,0,0,1,9.45,4c0-.07-.07-.18-.13-.17a.41.41,0,0,0-.25.2,2.62,2.62,0,0,0-.19.46.16.16,0,0,1-.13.11.12.12,0,0,1-.13-.11c0-.1-.11-.17-.13-.27a.49.49,0,0,1,.36-.57c.17-.06.23-.22.36-.31s0-.09,0-.11a2.17,2.17,0,0,0-.36,0c-.08,0-.08.09-.11.14s0,.17-.16.1a.18.18,0,0,1-.07-.23s0,0,0,0c.26-.12.37-.44.68-.49a2.15,2.15,0,0,0,.62-.32c.06,0,0-.1,0-.15a.14.14,0,0,1,0-.19S9.91,2,9.89,2s.09-.22.22-.25a.4.4,0,0,0,.15,0,.14.14,0,0,1,.21,0c.07.08,0,.17-.05.23s-.12.07-.16.16A3.65,3.65,0,0,0,11,1.81a4.22,4.22,0,0,1,1-.31,1.05,1.05,0,0,1,.31,0c.23,0,.44-.1.66-.1a.47.47,0,0,1,.17,0c.06,0,.12,0,.11.1a.14.14,0,0,1-.09.15.77.77,0,0,1-.45.07h-.29a.25.25,0,0,0-.2.12c0,.05-.05.08,0,.12A2.78,2.78,0,0,1,13.58,3.8c.06.2.13.4.2.62a1.15,1.15,0,0,0-.09-.8c0-.06,0-.12.05-.15s.12-.13,0-.2a.11.11,0,0,1-.07-.1.49.49,0,0,0-.14-.3c0-.06-.14-.13-.07-.21s.15,0,.23,0,.05.13.12.08,0-.11,0-.17,0-.08,0-.13,0-.18.08-.18.22,0,.2.17,0,.21-.05.32,0,.21.17.19.14,0,.12.13a1.37,1.37,0,0,1-.08.35,3.64,3.64,0,0,0-.21.91,9,9,0,0,0-.12,1.15A6,6,0,0,1,13.73,6.76ZM1.84,23.67,2,23.61c.32-.11.64-.24,1-.32a10.09,10.09,0,0,0,1.53-.39,6.77,6.77,0,0,0,.66-.33A1.62,1.62,0,0,0,5.77,22a7.22,7.22,0,0,1,.66-1.06,2.16,2.16,0,0,0,.38-1.07,2.16,2.16,0,0,0-.27.4,2.06,2.06,0,0,1-.79.76l-1.52.68a3.66,3.66,0,0,0-1,.84s0,.06,0,.08a.11.11,0,0,0,.08,0,1.79,1.79,0,0,0,.81-.44,1.09,1.09,0,0,1,.41-.3c.08,0,.16-.07.22,0a.2.2,0,0,1,0,.25,2.48,2.48,0,0,1-1,.62,5.21,5.21,0,0,0-1,.38ZM13.39,7.56c-.09.15-.15.29-.23.42l-.45.67s0,.06,0,.08.06,0,.08,0a1.4,1.4,0,0,0,.1-.16,1.23,1.23,0,0,1,.3-.38C13.48,8,13.48,8,13.39,7.56ZM8.8,15.34a.75.75,0,0,0,.31-.5.37.37,0,0,1,.17-.28c.06,0,.05-.1.05-.16C9,14.63,9,15,8.8,15.34Zm3.74-6.4c-.13.05-.16.17-.26.26C12.46,9.19,12.48,9.06,12.54,8.94Z"/></g></svg>