<svg id="Capa_1" data-name="Capa 1" xmlns="http://www.w3.org/2000/svg" viewBox="0 0 35 35"><defs><style>.cls-1{fill:#c7c7c7;}</style></defs><title>Sin título-1</title><path class="cls-1" d="M17.49,35H3.63C1.5,35,0,33.71,0,31.87q0-7.66,0-15.34a1,1,0,0,1,.39-.83q2.52-2.34,5-4.69a.76.76,0,0,0,.2-.49c0-2,0-4.07,0-6.11,0-.58.21-.77.88-.77,2.11,0,4.22,0,6.34,0a1,1,0,0,0,.78-.3c1-1,2-1.88,3-2.82.75-.7,1-.7,1.71,0,1,1,2.07,1.91,3.09,2.88a.73.73,0,0,0,.67.25,2.53,2.53,0,0,1,2.24.79c1.51,1.38,3.1,2.7,4.66,4a1,1,0,0,1,.4.83,3.55,3.55,0,0,0,.05,1.53c.22.46.79.79,1.2,1.18,1.34,1.26,2.7,2.51,4,3.78a1,1,0,0,1,.31.66q0,7.8,0,15.6a3.27,3.27,0,0,1-3.43,3ZM7,4.86a2.36,2.36,0,0,0,0,.25c0,5,0,10,0,14.92a.71.71,0,0,0,.25.47q2.12,1.63,4.25,3.25c.68.53,1.37,1,2.06,1.57l.25-.15L17,23.12a.87.87,0,0,1,1.07,0l.32.2,3.14,2a.75.75,0,0,0,.14-.08c2.06-1.58,4.12-3.15,6.16-4.74A.66.66,0,0,0,28,20c0-3.32,0-6.63,0-10,0-.12,0-.24,0-.39h-4.7c-.66,0-.88-.19-.88-.77v-4ZM32.09,33.74l-.38-.26-13.91-9a.46.46,0,0,0-.6,0L5,32.39,3,33.67l0,.07ZM1.41,17.66c0,4.85,0,9.6,0,14.35a4,4,0,0,0,.28,1l10.7-6.9ZM33.2,32.92h.18a6.8,6.8,0,0,0,.21-1.15c0-4.56,0-9.12,0-13.68v-.41L22.67,26.12Zm-.52-17.23-3.25-3v3Zm-30.33,0H5.58v-3ZM17.5,1.53,15.28,3.61h4.45Zm9.33,6.92-3-2.59V8.45Zm2.58,10.81,3-2.32h-3ZM5.58,19.21V16.94h-3Z"/><path class="cls-1" d="M18.87,18.38a3.05,3.05,0,0,1-3.45-.54,2.71,2.71,0,0,1-.21-3.44c.86-1,2-1.31,3.68-.8,0-.09,0-.18,0-.26a.64.64,0,0,1,.72-.65.63.63,0,0,1,.68.68c0,.85,0,1.7,0,2.56v2c0,.47.22.63.7.43a2.54,2.54,0,0,0,1-.68,4,4,0,0,0-.58-5.31,5.8,5.8,0,0,0-5.7-1.24,4.66,4.66,0,0,0-3.46,4.1c-.1,2.28,1.9,4.32,4.54,4.6.23,0,.47.05.7.06.44,0,.71.27.7.63s-.3.57-.75.58c-3,.07-5.94-2-6.5-4.62-.71-3.35,1.9-6.42,5.82-6.82,3.54-.37,6.85,1.89,7.31,5a5.07,5.07,0,0,1-.55,3.23,3.55,3.55,0,0,1-1.79,1.59C20.39,20,19.32,19.63,18.87,18.38Zm0-2.25a1.5,1.5,0,0,0-1.35-1.62,1.52,1.52,0,0,0-1.42,1.14,2.15,2.15,0,0,0,0,.67,1.52,1.52,0,0,0,1.34,1.18,1.53,1.53,0,0,0,1.39-1.07A1.25,1.25,0,0,0,18.9,16.13Z"/></svg>